HIERARCHY
ROOT SpineBase
{
  OFFSET 0.000000 0.000000 0.000000
  CHANNELS 6 Xposition Yposition Zposition Zrotation Xrotation Yrotation
  JOINT SpineMid
  {
    OFFSET -0.000000 28.910301 0.000000
    CHANNELS 3 Zrotation Xrotation Yrotation
    JOINT SpineShoulder
    {
      OFFSET -0.027477 21.457860 -0.672878
      CHANNELS 3 Zrotation Xrotation Yrotation
      JOINT Neck
      {
        OFFSET -0.032910 7.095251 -0.518576
        CHANNELS 3 Zrotation Xrotation Yrotation
        JOINT Head
        {
          OFFSET -0.810384 12.166587 -0.148481
          CHANNELS 3 Zrotation Xrotation Yrotation
          End Site
          {
            OFFSET 0 0 0
          }
        }
      }
      JOINT ShoulderLeft
      {
        OFFSET -16.442307 -1.503214 4.187867
        CHANNELS 3 Zrotation Xrotation Yrotation
        JOINT ElbowLeft
        {
          OFFSET -5.941052 -23.880718 5.390811
          CHANNELS 3 Zrotation Xrotation Yrotation
          JOINT WristLeft
          {
            OFFSET -6.669674 -22.791013 0.168956
            CHANNELS 3 Zrotation Xrotation Yrotation
            JOINT HandLeft
            {
              OFFSET -1.418350 -5.919724 -0.036980
              CHANNELS 3 Zrotation Xrotation Yrotation
              JOINT HandTipLeft
              {
                OFFSET -1.048665 -6.108813 -1.850669
                CHANNELS 3 Zrotation Xrotation Yrotation
                End Site
                {
                  OFFSET 0 0 0
                }
              }
              JOINT ThumbLeft
              {
                OFFSET -1.574244 -0.655977 -0.841920
                CHANNELS 3 Zrotation Xrotation Yrotation
                End Site
                {
                  OFFSET 0 0 0
                }
              }
            }
          }
        }
      }
      JOINT ShoulderRight
      {
        OFFSET 15.697741 -2.281934 -3.872904
        CHANNELS 3 Zrotation Xrotation Yrotation
        JOINT ElbowRight
        {
          OFFSET 6.165038 -27.395730 -1.354832
          CHANNELS 3 Zrotation Xrotation Yrotation
          JOINT WristRight
          {
            OFFSET 1.275374 -21.095212 -3.751862
            CHANNELS 3 Zrotation Xrotation Yrotation
            JOINT HandRight
            {
              OFFSET -0.998719 -7.120670 -0.618455
              CHANNELS 3 Zrotation Xrotation Yrotation
              JOINT HandTipRight
              {
                OFFSET -0.014332 -6.345064 -0.614165
                CHANNELS 3 Zrotation Xrotation Yrotation
                End Site
                {
                  OFFSET 0 0 0
                }
              }
              JOINT ThumbRight
              {
                OFFSET -3.811428 0.784338 -0.350429
                CHANNELS 3 Zrotation Xrotation Yrotation
                End Site
                {
                  OFFSET 0 0 0
                }
              }
            }
          }
        }
      }
    }
  }
  JOINT HipLeft
  {
    OFFSET -6.136333 0.267567 -2.273311
    CHANNELS 3 Zrotation Xrotation Yrotation
    JOINT KneeLeft
    {
      OFFSET -9.570189 -30.181059 2.657402
      CHANNELS 3 Zrotation Xrotation Yrotation
      JOINT AnkleLeft
      {
        OFFSET -4.208697 -37.984649 7.124003
        CHANNELS 3 Zrotation Xrotation Yrotation
        JOINT FootLeft
        {
          OFFSET -2.255500 -3.876583 -12.813234
          CHANNELS 3 Zrotation Xrotation Yrotation
          End Site
          {
            OFFSET 0 0 0
          }
        }
      }
    }
  }
  JOINT HipRight
  {
    OFFSET 5.538769 0.918438 -4.421955
    CHANNELS 3 Zrotation Xrotation Yrotation
    JOINT KneeRight
    {
      OFFSET 4.498628 -29.352963 2.104356
      CHANNELS 3 Zrotation Xrotation Yrotation
      JOINT AnkleRight
      {
        OFFSET -0.353119 -37.898891 8.274113
        CHANNELS 3 Zrotation Xrotation Yrotation
        JOINT FootRight
        {
          OFFSET -2.204065 -4.694608 -11.314764
          CHANNELS 3 Zrotation Xrotation Yrotation
          End Site
          {
            OFFSET 0 0 0
          }
        }
      }
    }
  }
}
MOTION
Frames: 14
Frame Time: 0.033333
35.239312 75.493795 374.643828 0.000000 0.000000 10.427825 -0.000000 0.000000 -10.427825 -0.000000 0.000000 0.000000 -0.000000 0.000000 0.000000 0.000000 0.000000 0.000000 -0.000000 0.000000 0.000000 -0.000000 0.000000 0.000000 -0.000000 0.000000 0.000000 -0.000000 0.000000 0.000000 0.000000 0.000000 0.000000 0.000000 0.000000 0.000000 -0.000000 0.000000 0.000000 -0.000000 0.000000 0.000000 -0.000000 0.000000 0.000000 -0.000000 0.000000 0.000000 0.000000 0.000000 0.000000 0.000000 0.000000 0.000000 -0.000000 0.000000 -10.427825 -0.000000 0.000000 0.000000 -0.000000 0.000000 0.000000 0.000000 0.000000 0.000000 -0.000000 0.000000 -10.427825 -0.000000 0.000000 0.000000 -0.000000 0.000000 0.000000 0.000000 0.000000 0.000000
35.281041 75.447621 374.634824 0.003524 0.015816 10.408810 -0.006323 -0.014919 -10.408811 -0.000000 0.000000 0.000000 -0.000000 0.000000 0.000000 0.000000 0.000000 0.000000 -0.000000 0.000000 0.000000 -0.000000 0.000000 0.000000 0.025382 5.299789 -1.271702 0.186452 -7.370302 1.628677 0.000000 0.000000 0.000000 0.000000 0.000000 0.000000 -0.000000 0.000000 0.000000 -0.000000 0.000000 0.000000 -0.169012 1.198390 -0.151472 -0.289835 0.853370 0.193141 0.000000 0.000000 0.000000 0.000000 0.000000 0.000000 -0.006323 -0.014919 -10.408811 -0.000000 0.000000 0.000000 -0.000000 0.000000 0.000000 0.000000 0.000000 0.000000 -0.006323 -0.014919 -10.408811 -0.000000 0.000000 0.000000 0.475701 -1.999723 -0.208453 0.000000 0.000000 0.000000
35.318318 75.409217 374.626775 -0.002649 0.034222 10.424980 -0.003587 -0.034136 -10.424980 -0.000000 0.000000 0.000000 -0.000000 0.000000 0.000000 0.000000 0.000000 0.000000 -0.000000 0.000000 0.000000 0.063946 0.792286 -0.231880 0.144718 9.300860 -2.209772 0.405155 -13.497710 3.056649 0.000000 0.000000 0.000000 0.000000 0.000000 0.000000 -0.000000 0.000000 0.000000 -0.000000 0.000000 0.000000 -0.428366 2.412472 -0.291503 -0.358561 1.482129 0.369717 0.000000 0.000000 0.000000 0.000000 0.000000 0.000000 -0.003587 -0.034136 -10.424980 -0.000000 0.000000 0.000000 -0.000000 0.000000 0.000000 0.000000 0.000000 0.000000 -0.003587 -0.034136 -10.424980 -0.000000 0.000000 0.000000 0.799366 -3.360105 -0.351178 0.000000 0.000000 0.000000
35.351143 75.378583 374.619681 -0.018507 0.055222 10.476220 0.008157 -0.057666 -10.476207 -0.000000 0.000000 0.000000 -0.000000 0.000000 0.000000 0.000000 0.000000 0.000000 -0.000000 0.000000 0.000000 0.068712 1.317992 -0.386101 0.474089 12.985118 -3.118872 0.561650 -18.309570 4.246835 0.000000 0.000000 0.000000 0.000000 0.000000 0.000000 -0.000000 0.000000 0.000000 -0.000000 0.000000 0.000000 -0.777658 3.655636 -0.418978 -0.203417 1.866143 0.534382 0.000000 0.000000 0.000000 0.000000 0.000000 0.000000 0.008157 -0.057666 -10.476207 -0.000000 0.000000 0.000000 -0.000000 0.000000 0.000000 0.000000 0.000000 0.000000 0.008157 -0.057666 -10.476207 -0.000000 0.000000 0.000000 0.957935 -4.005400 -0.432198 0.000000 0.000000 0.000000
35.379516 75.355718 374.613542 -0.044048 0.078824 10.562519 0.028852 -0.085562 -10.562467 -0.000000 0.000000 0.000000 -0.000000 0.000000 0.000000 0.000000 0.000000 0.000000 -0.000000 0.000000 0.000000 0.055673 1.932606 -0.566294 0.929413 15.968126 -3.887798 0.570422 -21.787319 5.152130 0.000000 0.000000 0.000000 0.000000 0.000000 0.000000 -0.000000 0.000000 0.000000 -0.000000 0.000000 0.000000 -1.218616 4.940978 -0.532217 0.178281 1.989299 0.693655 0.000000 0.000000 0.000000 0.000000 0.000000 0.000000 0.028852 -0.085562 -10.562467 -0.000000 0.000000 0.000000 -0.000000 0.000000 0.000000 0.000000 0.000000 0.000000 0.028852 -0.085562 -10.562467 -0.000000 0.000000 0.000000 0.945420 -3.900345 -0.453578 0.000000 0.000000 0.000000
35.403437 75.340622 374.608358 -0.079280 0.105038 10.683977 0.058433 -0.117915 -10.683845 -0.000000 0.000000 0.000000 -0.000000 0.000000 0.000000 0.000000 0.000000 0.000000 -0.000000 0.000000 0.000000 0.025238 2.637995 -0.772696 1.479599 18.254267 -4.508060 0.363845 -23.948361 5.730514 0.000000 0.000000 0.000000 0.000000 0.000000 0.000000 -0.000000 0.000000 0.000000 -0.000000 0.000000 0.000000 -1.755048 6.281679 -0.628819 0.789510 1.838527 0.856499 0.000000 0.000000 0.000000 0.000000 0.000000 0.000000 -0.569946 0.438024 -10.881494 0.722048 -0.427291 0.202097 -0.000000 0.000000 0.000000 0.000000 0.000000 0.000000 0.058433 -0.117915 -10.683845 -0.000000 0.000000 0.000000 0.763381 -3.051847 -0.414311 0.000000 0.000000 0.000000
35.417507 75.335677 374.609529 -0.143663 0.128543 10.901426 0.116761 -0.153393 -10.901109 -0.000000 0.000000 0.000000 -0.000000 0.000000 0.000000 0.000000 0.000000 0.000000 -0.000000 0.000000 0.000000 -0.069107 3.576515 -1.045372 2.778425 19.612944 -4.990224 -0.726558 -23.322108 5.515426 0.000000 0.000000 0.000000 0.000000 0.000000 0.000000 -0.000000 0.000000 0.000000 -0.993160 1.108334 0.252955 -0.725251 5.765811 -0.972082 1.020142 4.060567 0.936248 0.000000 0.000000 0.000000 0.000000 0.000000 0.000000 -0.606663 0.573439 -11.155558 0.850417 -0.573085 0.261355 -0.000000 0.000000 0.000000 0.000000 0.000000 0.000000 0.116761 -0.153393 -10.901109 -0.000000 0.000000 0.000000 -0.000000 0.000000 0.000000 0.000000 0.000000 0.000000
35.441871 75.340874 374.599834 -0.181970 0.175596 11.104313 0.144745 -0.207354 -11.103772 -0.000000 0.000000 0.000000 0.990786 0.018562 0.013160 0.000000 0.000000 0.000000 0.302655 1.251479 -0.247111 -0.454875 3.349525 -1.105189 3.259338 20.320799 -5.167662 -1.003237 -22.895430 5.450162 0.000000 0.000000 0.000000 0.000000 0.000000 0.000000 -0.000000 0.000000 0.000000 -1.671984 1.180483 0.385620 -0.619920 8.132702 -1.307745 2.371584 1.028912 1.258512 0.000000 0.000000 0.000000 0.000000 0.000000 0.000000 -0.648219 0.568546 -11.375378 0.930471 -0.604198 0.279011 -0.000000 0.000000 0.000000 0.000000 0.000000 0.000000 0.144745 -0.207354 -11.103772 -0.000000 0.000000 0.000000 -1.410230 7.228560 0.077632 0.000000 0.000000 0.000000
35.451568 75.350996 374.597445 -0.241683 0.210599 11.327498 0.195612 -0.253966 -11.326621 -0.000000 0.000000 0.000000 1.275291 0.043673 0.017974 0.000000 0.000000 0.000000 0.332194 1.818362 -0.384345 -0.539998 3.766492 -1.260043 3.462795 21.110787 -5.331078 -1.688619 -21.809920 5.209830 0.000000 0.000000 0.000000 0.000000 0.000000 0.000000 -0.000000 0.000000 0.000000 -2.252484 1.278014 0.502656 -1.380271 9.707684 -1.394337 5.206577 -1.985619 1.562796 0.000000 0.000000 0.000000 0.000000 0.000000 0.000000 -0.568464 0.504128 -11.591613 0.900862 -0.589054 0.271292 -0.266908 1.899246 -0.206885 0.000000 0.000000 0.000000 0.195612 -0.253966 -11.326621 -0.000000 0.000000 0.000000 -1.380471 6.492221 0.310175 0.000000 0.000000 0.000000
35.445910 75.353666 374.607081 -0.316174 0.228511 11.506228 0.264241 -0.286984 -11.504935 -0.000000 0.000000 0.000000 1.571346 0.035085 0.021015 0.000000 0.000000 0.000000 0.434633 2.178340 -0.454520 -0.649926 4.391386 -1.484449 3.697921 20.476382 -5.101459 -2.241190 -20.738803 4.910915 0.000000 0.000000 0.000000 0.000000 0.000000 0.000000 -0.252974 1.012155 0.242537 -2.347598 0.417013 0.296685 -2.810413 10.958384 -1.311126 6.912576 -2.397093 1.850418 0.000000 0.000000 0.000000 0.000000 0.000000 0.000000 -0.477224 0.449178 -11.762130 0.875999 -0.569516 0.262598 -0.252958 1.464023 -0.011998 0.000000 0.000000 0.000000 0.321024 0.712382 -11.363508 0.141251 -0.990962 -0.140417 -1.382921 6.390046 0.357179 0.000000 0.000000 0.000000
35.434689 75.351487 374.614896 -0.401682 0.236699 11.653472 0.345596 -0.312951 -11.651699 -0.000000 0.000000 0.000000 1.869632 0.035421 0.024574 0.000000 0.000000 0.000000 0.535345 2.425720 -0.496996 -0.751827 4.992762 -1.696885 3.459075 19.669102 -4.768733 -2.383297 -18.619271 4.516722 0.000000 0.000000 0.000000 0.000000 0.000000 0.000000 -0.545034 1.501954 0.372268 -2.212801 0.264316 0.208245 -4.420725 11.271209 -1.137955 7.571309 -4.136593 1.985995 0.000000 0.000000 0.000000 0.000000 0.000000 0.000000 -0.468406 0.390365 -11.899601 0.941562 -0.520316 0.252727 0.227721 -3.018352 1.107579 0.000000 0.000000 0.000000 0.577026 1.101484 -11.437830 0.053646 -1.432237 -0.214791 -0.000000 0.000000 0.000000 0.000000 0.000000 0.000000
35.421209 75.348726 374.624233 -0.479689 0.237235 11.734886 0.421420 -0.329829 -11.732680 -0.000000 0.000000 0.000000 2.094776 -0.013955 0.024863 0.000000 0.000000 0.000000 0.582934 2.435758 -0.489828 -0.690999 5.710740 -1.921560 2.657407 18.285285 -4.254924 -2.057177 -17.928189 4.472077 0.000000 0.000000 0.000000 0.000000 0.000000 0.000000 -0.711369 1.870960 0.468142 -1.989151 0.361632 0.133119 -6.119727 11.051949 -0.952199 8.502337 -3.746593 2.038680 0.000000 0.000000 0.000000 0.000000 0.000000 0.000000 -0.441923 0.400358 -11.990084 0.996233 -0.534857 0.262585 0.722661 -6.829459 2.043011 0.000000 0.000000 0.000000 0.810894 1.512237 -11.447303 0.158251 -3.295478 -0.229177 0.875448 -5.173403 0.613104 0.000000 0.000000 0.000000
35.407771 75.320265 374.632542 -0.549579 0.236184 11.744679 0.490007 -0.343096 -11.742079 -0.000000 0.000000 0.000000 2.263875 -0.050969 0.025211 0.000000 0.000000 0.000000 0.675495 2.606178 -0.514750 -0.842470 5.930492 -2.016025 2.354513 17.565596 -3.988754 -0.992852 -16.716902 4.383606 0.000000 0.000000 0.000000 0.000000 0.000000 0.000000 -0.924658 2.223097 0.564490 -1.714863 0.573313 0.069967 -8.109004 10.125580 -0.735070 9.797191 -4.053125 1.973468 0.000000 0.000000 0.000000 0.000000 0.000000 0.000000 -0.645795 0.618358 -12.078661 1.311930 -0.702371 0.347353 0.670956 -6.885524 2.298223 0.000000 0.000000 0.000000 1.166671 2.290127 -11.327570 0.196969 -4.946899 -0.307750 2.268386 -12.685137 1.201179 0.000000 0.000000 0.000000
35.386629 75.282273 374.646479 -0.633206 0.238300 11.725789 0.571574 -0.361997 -11.722667 -0.809503 0.350362 -0.055080 3.274553 -0.478674 0.099094 0.000000 0.000000 0.000000 1.588825 2.503452 -0.491823 -1.153739 5.930840 -2.050666 2.343636 16.644940 -3.685976 -0.867791 -18.457439 4.707438 0.000000 0.000000 0.000000 0.000000 0.000000 0.000000 -0.366541 2.157515 0.701972 -1.702914 0.799388 0.068807 -8.963120 9.396774 -0.719566 9.897461 -4.170074 1.896007 0.000000 0.000000 0.000000 0.000000 0.000000 0.000000 -0.504059 0.680381 -12.084363 1.270127 -0.793964 0.373486 1.526182 -11.765400 3.040714 0.000000 0.000000 0.000000 1.149504 2.009565 -11.350495 0.324731 -4.862466 -0.237548 5.226306 -25.604337 1.695312 0.000000 0.000000 0.000000
